<svg id="Calque_1" data-name="Calque 1" xmlns="http://www.w3.org/2000/svg" viewBox="0 0 283.46 283.46"><defs><style>.cls-1{fill:#fff;}</style></defs><path class="cls-1" d="M227.47,211.43h-1.41V147.28a3.52,3.52,0,0,0,3.09-6.33l-45.42-24.69v-6.78a3.56,3.56,0,0,0-1-2.5L144.21,68.51V55.86h4.24a3.53,3.53,0,0,0,0-7.06h-4.24V41.39a3.53,3.53,0,1,0-7.05,0V48.8H133a3.53,3.53,0,0,0,0,7.06h4.15V68.51L98.68,107a3.55,3.55,0,0,0-1,2.5v6.78L52.22,141a3.52,3.52,0,0,0,3.09,6.33v64.15H53.9a3.53,3.53,0,0,0,0,7.06H227.47a3.53,3.53,0,0,0,0-7.06ZM101.17,161.1a3.53,3.53,0,0,0-3.52,3.53v46.8H62.37v-68l35.28-19.18v8.59a3.53,3.53,0,0,0,7,0V110.94l36-36,36,36V211.43H164V182.1a23.29,23.29,0,0,0-46.57,0v29.33H104.7v-46.8A3.53,3.53,0,0,0,101.17,161.1Zm23.29,21a16.26,16.26,0,0,1,12.7-15.84v45.17h-12.7Zm19.75,29.33V166.26a16.25,16.25,0,0,1,12.7,15.84v29.33Zm39.52,0V124.29L219,143.47v68Z"/><path class="cls-1" d="M140.69,141.05a16.23,16.23,0,1,0-16.23-16.23A16.25,16.25,0,0,0,140.69,141.05Zm0-25.4a9.17,9.17,0,1,1-9.18,9.17A9.18,9.18,0,0,1,140.69,115.65Z"/><path class="cls-1" d="M201.36,161.43A10.59,10.59,0,0,0,190.78,172v20.46a3.53,3.53,0,0,0,3.53,3.53h14.11a3.53,3.53,0,0,0,3.53-3.53V172A10.59,10.59,0,0,0,201.36,161.43Zm3.53,27.51h-7V172a3.53,3.53,0,1,1,7,0Z"/><path class="cls-1" d="M80,161.43A10.59,10.59,0,0,0,69.42,172v20.46A3.53,3.53,0,0,0,73,196H87.06a3.53,3.53,0,0,0,3.53-3.53V172A10.59,10.59,0,0,0,80,161.43Zm3.52,27.51h-7V172a3.53,3.53,0,1,1,7,0Z"/><path class="cls-1" d="M103.67,146.26a3.51,3.51,0,0,0-5,0,3.51,3.51,0,0,0-1,2.49,3.55,3.55,0,0,0,1,2.5,3.53,3.53,0,0,0,6-2.5A3.55,3.55,0,0,0,103.67,146.26Z"/></svg>