<svg id="Calque_1" data-name="Calque 1" xmlns="http://www.w3.org/2000/svg" viewBox="0 0 283.46 283.46"><defs><style>.cls-1{fill:#fff;}</style></defs><path class="cls-1" d="M232.8,121.62c2.27-7,.29-14.6-5.74-21.94-5-6.13-12.87-12.09-22.65-17.25a3.58,3.58,0,1,0-3.34,6.33c14.39,7.59,28.5,19.62,24.92,30.65a1.8,1.8,0,0,1-.89.94,4.67,4.67,0,0,1-3.45-.09L131,90.82c-2.91-.95-3.27-2.48-3-3.24,4.59-14.13,28-13.63,46.71-8.91a3.57,3.57,0,1,0,1.75-6.93c-12.75-3.23-24.42-4.07-33.77-2.44-11.28,2-18.72,7.52-21.5,16.08a8.57,8.57,0,0,0-.36,3.16,10.64,10.64,0,0,0-4,1.34,11.6,11.6,0,0,0-5.23,6.53,11.3,11.3,0,0,0,3.11,12,8.37,8.37,0,0,0-1.41,2.63,21.52,21.52,0,0,0,1.24,16.24,117.35,117.35,0,0,0-26,2.32C77.39,132,68.56,136,62.93,141.21c-5,4.64-7.49,10.14-7.49,16.36a8.6,8.6,0,0,0,.63,3.13,11.57,11.57,0,0,0,.36,20.79,8.61,8.61,0,0,0-.54,2.93c0,9.94,6.45,18.05,18.65,23.46,10,4.42,23.52,6.85,38.17,6.85,14.93,0,29.67-2.6,40.44-7.13,13.17-5.53,20.13-13.55,20.13-23.18a9,9,0,0,0-1.87-5.32,11.75,11.75,0,0,0-.27-16.44,10.28,10.28,0,0,0,.88-1.52,103.48,103.48,0,0,0,20.55,2.24,61.88,61.88,0,0,0,12.87-1.23c10.32-2.2,17.06-7.34,19.5-14.86a9,9,0,0,0-.13-5.64,11.75,11.75,0,0,0,4.81-15.71A8.74,8.74,0,0,0,232.8,121.62Zm-114.41-23a4.46,4.46,0,0,1,2-2.53,3.12,3.12,0,0,1,2.48-.33h0l98.75,32.05c1.74.57,2.63,2.83,2,4.94s-2.74,3.43-4.47,2.86l-5-1.62a3.58,3.58,0,0,0-3.66.9,5.66,5.66,0,0,1-4.88,2,5.81,5.81,0,0,1-4.12-3.33,11.11,11.11,0,0,0-6.77-5.72,13.14,13.14,0,0,0-3.79-.56,10.84,10.84,0,0,0-5,1.12,7,7,0,0,1-5.57.79c-1.47-.48-2.84-1.83-4.16-4.11a10.08,10.08,0,0,0-13.48-4.38c-2.37,1.06-4.31,1.36-5.77.89a7,7,0,0,1-4.05-3.91,12.25,12.25,0,0,0-6.81-5.64,11.08,11.08,0,0,0-8.85.65,5.76,5.76,0,0,1-5.27.28,5.66,5.66,0,0,1-2.78-4.5s0,0,0-.08-.05-.21-.07-.32l-.06-.2-.09-.23-.12-.26-.08-.16c-.06-.1-.13-.2-.2-.3l-.09-.13c0-.06-.1-.13-.16-.19l-.19-.2-.18-.15-.15-.12a2.2,2.2,0,0,0-.25-.17l-.21-.12-.17-.09-.32-.13-.08,0-6.31-2.06C118.6,103,117.71,100.73,118.39,98.62Zm45.7,76.49h-5.26a3.58,3.58,0,0,0-3.21,2,5.68,5.68,0,0,1-4,3.43,5.79,5.79,0,0,1-4.93-1.88,11.08,11.08,0,0,0-8.2-3.36,12.2,12.2,0,0,0-8.22,3.24,7.09,7.09,0,0,1-5.07,2.48c-1.54,0-3.3-.88-5.23-2.62a10.49,10.49,0,0,0-7-2.91h-.08a10.46,10.46,0,0,0-7,2.91c-1.93,1.74-3.69,2.62-5.23,2.62a7.08,7.08,0,0,1-5.07-2.47,12.15,12.15,0,0,0-8.22-3.25,11.05,11.05,0,0,0-8.19,3.35,5.8,5.8,0,0,1-4.94,1.89,5.67,5.67,0,0,1-4-3.43l0,0a3.18,3.18,0,0,0-.23-.4l0,0a2.42,2.42,0,0,0-.25-.31l-.08-.09a2.76,2.76,0,0,0-.3-.29h0a4.06,4.06,0,0,0-.36-.26l-.09-.06-.34-.18-.06,0a3.16,3.16,0,0,0-.43-.16l-.07,0-.37-.08-.11,0c-.15,0-.3,0-.46,0H60.28c-1.83,0-3.37-1.87-3.37-4.1s1.54-4.09,3.37-4.09H164.09c1.83,0,3.38,1.87,3.38,4.09S165.92,175.11,164.09,175.11Zm-51.38,32.46c-13.67,0-26.2-2.21-35.27-6.23C67.89,197.1,63,191.41,63,184.42c0-.6.46-1.51,2-1.93a12.14,12.14,0,0,0,8,5.1,12.79,12.79,0,0,0,11.17-3.9c2.56-2.58,5.94-.38,6.15-.23a14.08,14.08,0,0,0,10.26,4.71c3.37,0,6.74-1.5,10-4.47a3.42,3.42,0,0,1,2.24-1.06h.07a3.54,3.54,0,0,1,2.26,1.06c3.28,3,6.65,4.47,10,4.47a14.11,14.11,0,0,0,10.26-4.71c.2-.14,3.58-2.35,6.16.24a12.83,12.83,0,0,0,11.15,3.89,12.21,12.21,0,0,0,8.12-5.32h1.38c3.05,0,3.87,1.35,3.87,2.15C166.12,198.91,139,207.57,112.71,207.57Zm49.09-47.85H66.46c-3,0-3.86-1.35-3.86-2.15,0-4.21,1.7-7.85,5.22-11.13,9-8.39,29.57-13.07,51.55-11.81.23.28.47.55.72.82,8.17,9.07,22.66,17.29,39.75,22.56,1.48.46,2.95.88,4.42,1.28A6,6,0,0,1,161.8,159.72Zm56.33-14.64c-1.63,5-6.4,8.41-14.19,10.07-10.77,2.29-26.47.81-42-4-15.89-4.9-29.21-12.37-36.55-20.51-5.35-5.93-7.13-11.79-5.31-17.4a1.77,1.77,0,0,1,.87-.93,3.21,3.21,0,0,1,1.61-.28,12.15,12.15,0,0,0,6,7.3,12.82,12.82,0,0,0,11.81-.27c3.25-1.66,5.78,1.49,5.93,1.69a14.11,14.11,0,0,0,8.31,7.65c3.21,1,6.88.64,10.9-1.16a3.43,3.43,0,0,1,2.49-.32h.05a3.51,3.51,0,0,1,1.82,1.73c2.26,3.88,4.92,6.28,8.14,7.33a14,14,0,0,0,11.22-1.31c.24-.08,4.14-1.13,5.79,2.12a12.85,12.85,0,0,0,9.42,7.16,11.73,11.73,0,0,0,1.77.14,12.43,12.43,0,0,0,7.58-2.69l1.29.41h0C218,142.79,218.38,144.33,218.13,145.08Z"/><path class="cls-1" d="M187.81,82.79l.06,0a3.58,3.58,0,1,0,3.22-6.4l-.06,0a3.58,3.58,0,0,0-3.22,6.4Z"/></svg>