<svg id="Calque_1" data-name="Calque 1" xmlns="http://www.w3.org/2000/svg" viewBox="0 0 283.46 283.46"><defs><style>.cls-1{fill:#fff;}</style></defs><g id="Out_line" data-name="Out line"><path class="cls-1" d="M240.56,173.73a3.19,3.19,0,0,0-3.2,3.19h0v.54a5.85,5.85,0,0,1-10,4.14l-5.4-5.4a22,22,0,0,0,2.49-10.76l.09-18.17c0-.19,0-.38,0-.57V145a3.2,3.2,0,0,0-3.19-3.2h0a3.2,3.2,0,0,0-3.2,3.18v2.19a8,8,0,0,1-13.64,5.24l-3.79-3.79a25.51,25.51,0,0,0-2.9-5.52,19,19,0,0,0,10.75-17.12V109.78a3.2,3.2,0,0,0-6.4,0v4.68a8.1,8.1,0,0,1-13.84,5.73l-3-3a8,8,0,0,1-2.37-5.73v-7.22a20.88,20.88,0,0,0-6.09-14.7c-.51-.5-1-1-1.58-1.43a28.67,28.67,0,0,0-8.16-24.29l-7.49-7.49a3.2,3.2,0,0,0-4.53,4.52l.55.55a9.58,9.58,0,0,1,0,13.56h0a9.59,9.59,0,0,1-6.78,2.81H130.2a35.3,35.3,0,0,0-6-5.75,3.17,3.17,0,0,0-3.83,0c-.79.59-1.56,1.22-2.29,1.87a35.21,35.21,0,0,0-9.87-11.46,3.17,3.17,0,0,0-3.83,0,35.26,35.26,0,0,0-13,19.37L57,56.06a3.2,3.2,0,0,0-4.72,4.11L79,108.29A19,19,0,0,0,67.9,125.61v15.08L53.7,159.61A9.59,9.59,0,0,0,55.62,173a8.42,8.42,0,0,0,1,.67l19,10.83a9.51,9.51,0,0,0,10.12-.38L118.6,162a28.48,28.48,0,0,1-1.81,38.26l-6.55,6.56a56.85,56.85,0,0,0-16.76,40.47h6.39a50.53,50.53,0,0,1,14.89-36l6.56-6.55a34.86,34.86,0,0,0,2.6-46.38l6.52-4.39-3.58-5.3L82.19,178.85a3.2,3.2,0,0,1-3.37.13l-19-10.84a3.19,3.19,0,0,1-1.2-4.36,3.78,3.78,0,0,1,.22-.33l14.83-19.78,3.3-4.4a17.91,17.91,0,0,1,14.23-7.11,24,24,0,0,0,17.1-7.08l6.64-6.64a12.25,12.25,0,0,0,0-17.32,11.71,11.71,0,0,0-2.25-1.77A29,29,0,0,1,118.33,83l.09-.11a28.18,28.18,0,0,1,3.83-4.19,28.69,28.69,0,0,1,6.56,8.58,28.75,28.75,0,0,1,2.76,8.91,17.77,17.77,0,0,0-2,1.69,16.78,16.78,0,0,0,0,23.71l11.69,11.69a22.2,22.2,0,0,1,6.56,15.83v4.39a28.62,28.62,0,0,0,8.43,20.35l18.64,18.63a9.6,9.6,0,0,1-6.78,16.38H167a3.2,3.2,0,1,0,0,6.39H187.3a21.22,21.22,0,0,0,15.21-6.39h16.22a25,25,0,0,0,25-25h0v-6.94a3.2,3.2,0,0,0-3.2-3.2ZM92.05,90.32l9.35,7-3.77,3.76,0,0-1.76,1.76A12.47,12.47,0,0,1,88,106.53Zm8.69-1.48a29.61,29.61,0,0,1,9-3.82,35.16,35.16,0,0,0-2.8,8.46ZM74.37,86.7,65.18,70.17,76.4,78.59Zm4.54,8.18,3-12.13,4.54,3.41-3.85,15.43Zm31.49,19-6.64,6.65a17.72,17.72,0,0,1-12.58,5.21,24.33,24.33,0,0,0-16.89,6.87v-7A12.64,12.64,0,0,1,86.92,113a19,19,0,0,0,13.46-5.58l1.75-1.75a5.84,5.84,0,0,1,8.27,8.26ZM97.63,83.24a28.89,28.89,0,0,1,8.64-14.09A28.57,28.57,0,0,1,113,78,36,36,0,0,0,97.63,83.24Zm77.89,15.53a14.39,14.39,0,0,1,1.09,5.5v7.22a14.39,14.39,0,0,0,4.25,10.25l3,3a14.52,14.52,0,0,0,18.35,1.78,12.65,12.65,0,0,1-11.5,12l-20.82-20.81A14.57,14.57,0,0,0,166,110.6L153.29,97.92a16,16,0,0,0-2.81-2.25l1.57-1.57a14.4,14.4,0,0,1,23.47,4.67Zm13.88,47.51v1.48a13.18,13.18,0,0,1-3.86,9.32,8.11,8.11,0,0,1-11.46,0l-1.49-1.49a8,8,0,0,1-2.37-5.73V127.09ZM148.93,84.2a16,16,0,0,0,15.79-13.46,22.32,22.32,0,0,1,4.49,14,20.87,20.87,0,0,0-21.68,4.86L143.9,93.2a15.58,15.58,0,0,0-2.46-.18,17.16,17.16,0,0,0-3.85.44,34.62,34.62,0,0,0-3.06-9c-.05-.08-.09-.17-.13-.25Zm14,87.27-2.1-2.1a22.2,22.2,0,0,1-6.56-15.83v-4.39a28.62,28.62,0,0,0-8.43-20.35l-11.69-11.69a10.37,10.37,0,0,1,0-14.66h0a9.87,9.87,0,0,1,2.38-1.78,10.37,10.37,0,0,1,12.28,1.78l12.68,12.68a8.1,8.1,0,0,1,2.31,4.75.17.17,0,0,0,0,.07,6.85,6.85,0,0,1,0,.91v29a14.39,14.39,0,0,0,4.25,10.25l1.48,1.49a14.53,14.53,0,0,0,20.51,0,19.65,19.65,0,0,0,5.2-9.27,19.41,19.41,0,0,1-32.37,19.14Zm36.64,31c-.17.25-.35.5-.54.73s-.21.27-.32.41a14.9,14.9,0,0,1-11.37,5.26h-6.39a16,16,0,0,0-1.49-20.9l-4.51-4.51c.57,0,1.13.06,1.7.06a25.77,25.77,0,0,0,9.77-1.92,22.23,22.23,0,0,0,14.6,6.5,1.42,1.42,0,0,1,.08.18A14.88,14.88,0,0,1,199.53,202.5Zm2.66-20.73a15.82,15.82,0,0,1-10-3.49,25.76,25.76,0,0,0,10.16-19.47,14.45,14.45,0,0,0,15.72-.09l0,6.75v.09a15.57,15.57,0,0,1-4.59,11.52,15.89,15.89,0,0,1-10.69,4.68Zm29.71,15.28a18.48,18.48,0,0,1-13.17,5.45H206.81a21.23,21.23,0,0,0,.76-15,22.29,22.29,0,0,0,10.45-5.9c0-.06.11-.11.16-.16l4.68,4.68a12.23,12.23,0,0,0,13.92,2.39A18.53,18.53,0,0,1,231.9,197.05Z"/></g></svg>