<svg id="Calque_1" data-name="Calque 1" xmlns="http://www.w3.org/2000/svg" viewBox="0 0 283.46 283.46"><defs><style>.cls-1{fill:#fff;}</style></defs><path class="cls-1" d="M55,207l2.24,1.69a23.23,23.23,0,0,0,13.88,4.61,22.85,22.85,0,0,0,3.5-.29A25.15,25.15,0,0,0,97,227h88.46A25.09,25.09,0,0,0,208,212.82c.23,0,.44.13.67.17a22.71,22.71,0,0,0,3.76.31,23.18,23.18,0,0,0,13.88-4.61l2.24-1.68a17.13,17.13,0,0,0,5.23-20.91l-19.61-42a3.16,3.16,0,0,0-3.84-1.65l-6.55,2.18-6.07-49.79h-.08a29,29,0,0,0-1.92-10.5L188,64.45a15.79,15.79,0,0,0-14.64-10.06H159.76a18.8,18.8,0,0,0-37.09,0H109A15.79,15.79,0,0,0,94.39,64.45L86.75,84.32a28.77,28.77,0,0,0-1.92,10.5h-.08l-6,49.46-5.55-1.85a3.14,3.14,0,0,0-3.84,1.65l-19.62,42A17.08,17.08,0,0,0,55,207Zm173.1-18.25A10.82,10.82,0,0,1,224.75,202l-2.24,1.68a16.89,16.89,0,0,1-12.84,3.13,10.88,10.88,0,0,1-9-9.48l-4.83-43.47,13.77-4.59Zm-45.88-122,7.64,19.87A22.45,22.45,0,0,1,172.6,116.8V110a6.28,6.28,0,0,0,3.13-5.41V98.33a6.27,6.27,0,0,0-3.13-5.41V60.67h.79A9.47,9.47,0,0,1,182.18,66.7Zm-28.41,50.45H128.66V110a6.25,6.25,0,0,0,3.14-5.4V98.32a6.25,6.25,0,0,0-3.14-5.4V60.67h25.11V92.92a6.25,6.25,0,0,0-3.14,5.4v6.28a6.25,6.25,0,0,0,3.14,5.4ZM113,104.6V98.32h12.56v6.28Zm9.42-12.55h-6.28V60.67h6.28Zm-6.28,18.82h6.28v23.81l-3.14,3.14-3.14-3.14Zm40.8-6.27V98.32h12.55v6.28Zm9.41-12.55H160V60.67h6.28ZM160,110.87h6.28v23.81l-3.14,3.14L160,134.68ZM141.22,45a12.53,12.53,0,0,1,12.1,9.41H129.11A12.54,12.54,0,0,1,141.22,45ZM92.61,86.57l7.65-19.87a9.47,9.47,0,0,1,8.78-6h.8V92.92a6.24,6.24,0,0,0-3.14,5.4v6.28a6.25,6.25,0,0,0,3.14,5.4v6.8A22.47,22.47,0,0,1,92.61,86.57Zm-3.37,23.28c.32.51.61,1,1,1.52a28.91,28.91,0,0,0,19.64,11.79V136a3.14,3.14,0,0,0,.92,2.22l6.27,6.27a3.14,3.14,0,0,0,4.44,0l6.28-6.27a3.17,3.17,0,0,0,.91-2.22V123.43h25.11V136a3.14,3.14,0,0,0,.92,2.22l6.27,6.27a3.12,3.12,0,0,0,2.22.92,3.09,3.09,0,0,0,2.22-.92l6.28-6.27a3.14,3.14,0,0,0,.92-2.22V123.16a28.94,28.94,0,0,0,19.63-11.78c.36-.5.64-1,1-1.53l4.49,36.78-6.2,2.06a3.14,3.14,0,0,0-2.13,3.33l5.11,46a17.11,17.11,0,0,0,7.73,12.4,18.81,18.81,0,0,1-16.74,10.29H97a18.87,18.87,0,0,1-16.48-9.78A17.13,17.13,0,0,0,89,198l5.11-46A3.15,3.15,0,0,0,92,148.69l-7.2-2.4Zm-33.83,78.9,18.43-39.5,13.77,4.59-4.83,43.47a10.85,10.85,0,0,1-9,9.48A16.86,16.86,0,0,1,61,203.66L58.73,202a10.85,10.85,0,0,1-3.32-13.23Z"/><path class="cls-1" d="M122.39,214.43H160a12.57,12.57,0,0,0,12.56-12.55V176.77l3.76,5,5-3.76-8.78-11.72v-2.09A12.57,12.57,0,0,0,160,151.67H122.39a12.56,12.56,0,0,0-12.55,12.55v37.66A12.56,12.56,0,0,0,122.39,214.43Zm-6.28-50.21a6.29,6.29,0,0,1,6.28-6.28H160a6.28,6.28,0,0,1,6.28,6.28v37.66a6.28,6.28,0,0,1-6.28,6.27H122.39a6.28,6.28,0,0,1-6.28-6.27V164.22Z"/><path class="cls-1" d="M122.39,167.36H160v6.27H122.39Z"/></svg>