<svg id="Calque_1" data-name="Calque 1" xmlns="http://www.w3.org/2000/svg" viewBox="0 0 283.46 283.46"><defs><style>.cls-1{fill:#fff;}</style></defs><path class="cls-1" d="M231.57,56.42a11,11,0,0,0-15.81,2.16l-45,62.86h0a4.9,4.9,0,0,1-3.61,2,11.88,11.88,0,0,0-8.75,5.06l-.1.15c-3.47-.24-7.05-.41-10.67-.5a2.77,2.77,0,1,0-.14,5.53c3,.08,6,.21,8.85.39a11.87,11.87,0,0,0,23.57,2.87,79.2,79.2,0,0,1,17.88,5.31c4.17,2,6.66,4.15,6.66,5.85,0,5.69-23.7,14.5-63.43,14.5s-63.43-8.79-63.43-14.5c0-1.7,2.5-3.9,6.7-5.87a79.46,79.46,0,0,1,18-5.32,11.87,11.87,0,0,0,23.57-2.85c2.89-.18,5.86-.3,8.85-.38a2.77,2.77,0,1,0-.14-5.54c-3.62.09-7.2.26-10.67.5l-.1-.14a11.85,11.85,0,0,0-8.75-5.06,4.9,4.9,0,0,1-3.61-2l-45-62.86A11,11,0,1,0,49.29,72.32l51.76,57.44a5.23,5.23,0,0,1,1,1.56c-12.26,2.3-30,7.26-30,16.78v75c0,6.17,7.22,11.18,21.46,14.9,12.72,3.32,29.6,5.15,47.51,5.15,26.59,0,69-5.12,69-20V197.85a2.77,2.77,0,0,0-5.54,0v14.81c0,2.47-5.21,6.31-16.82,9.4L204.42,172v12.95a2.77,2.77,0,1,0,5.54,0V148.1c0-9.49-17.65-14.45-29.84-16.75a4.94,4.94,0,0,1,1-1.59l51.77-57.44a11,11,0,0,0-1.28-15.9ZM53.4,68.61a5.44,5.44,0,1,1,8.47-6.81l45,62.87h0a10.44,10.44,0,0,0,7.64,4.29,6.34,6.34,0,1,1-6.78,5.22,10.14,10.14,0,0,0-2.59-8.13ZM83,170.63c9.86,4.31,24,6.55,34.79,7.59L99,218.47ZM77.56,172l16.82,50.09c-11.61-3.09-16.82-6.93-16.82-9.4Zm44,11.16,15.5,44a205.78,205.78,0,0,1-34.47-3.22Zm4.37-4.27c4.88.29,9.92.44,15.05.44s10.17-.15,15-.44L141,221.6Zm34.47,4.27,19,40.79a204.79,204.79,0,0,1-34.47,3.21Zm3.83-4.91c10.77-1,24.93-3.28,34.79-7.59L183,218.47ZM141,168.14c16.94,0,49.68-2.18,63.43-11.57v2.69c0,1.26-1.28,2.42-2.22,3.2-2.59,2.06-7.51,4.35-15.1,6.33-14.15,3.69-31.54,5-46.11,5s-32-1.28-46.11-5c-7.58-2-12.51-4.27-15.1-6.32-2.62-2.21-2.22-2.69-2.22-5.9,13.64,9.31,46.05,11.57,63.43,11.57Zm63.43,53v2c0,5.7-23.74,14.5-63.43,14.5s-63.43-8.79-63.43-14.5v-2c13.68,9.34,46.79,11.58,63.41,11.58h0C157.64,232.71,190.75,230.46,204.42,221.13ZM228.73,68.61,177,126.05a10.16,10.16,0,0,0-2.62,7.87,6.5,6.5,0,0,1-1.28,5.32,6.33,6.33,0,0,1-9.22.7,6.42,6.42,0,0,1-.92-8.27,6.33,6.33,0,0,1,4.67-2.71,10.48,10.48,0,0,0,7.65-4.29h0l45-62.87a5.44,5.44,0,1,1,8.46,6.81Z"/><path class="cls-1" d="M138.22,106.27v9a2.77,2.77,0,1,0,5.54,0v-9a2.77,2.77,0,1,0-5.54,0Z"/><path class="cls-1" d="M120.15,109.09a2.76,2.76,0,0,0-1,3.78l4.52,7.82a2.77,2.77,0,1,0,4.79-2.77l-4.51-7.82A2.78,2.78,0,0,0,120.15,109.09Z"/><path class="cls-1" d="M158,110.1l-4.51,7.82a2.77,2.77,0,1,0,4.79,2.77l4.52-7.82a2.77,2.77,0,0,0-4.8-2.77Z"/></svg>