<?xml version="1.0" encoding="utf-8"?>
<!-- Generator: Adobe Illustrator 26.3.1, SVG Export Plug-In . SVG Version: 6.00 Build 0)  -->
<svg version="1.1" id="Calque_1" xmlns="http://www.w3.org/2000/svg" xmlns:xlink="http://www.w3.org/1999/xlink" x="0px" y="0px"
	 viewBox="0 0 841.9 595.3" style="enable-background:new 0 0 841.9 595.3;" xml:space="preserve">
<style type="text/css">
	.st0{fill:#00A7E1;}
</style>
<g>
	<g>
		<path class="st0" d="M101.4,206H86.8L30.9,84.2h24L94,170.3l39.3-86.1h24L101.4,206z"/>
		<path class="st0" d="M170.1,206V84.2h21.8V206L170.1,206L170.1,206z"/>
		<path class="st0" d="M302.4,116.4l-22.3,4.7c-2.1-12.3-11.7-19.9-24-19.9c-10.1,0-19.4,5-19.4,16c0,6.6,3.4,10.7,12.7,13.5l28.1,8
			c16.7,4.8,26.8,14.6,26.8,33c0,23.2-18.6,36.7-45,36.7c-24.4,0-45.7-11.4-48.7-35.9l23.4-4.6c2.9,14.6,13.1,21.2,27.2,21.2
			c13.6,0,21.2-6.2,21.2-16.5c0-7.5-4-11.7-14.4-14.4l-24-6.4c-13.1-3.5-30.4-11.2-30.4-33.7c0-22.1,16.8-36.2,42.6-36.2
			C280.7,81.8,297.7,94.8,302.4,116.4z"/>
		<path class="st0" d="M323.4,206V84.2h21.8V206L323.4,206L323.4,206z"/>
		<path class="st0" d="M418.7,103.9V206h-21.8V103.9h-37.3V84.2h96.5v19.7H418.7z"/>
	</g>
	<g>
		<path d="M181.3,341.4h-42.6l-13.8-60.5l-13.8,60.5H68.6L35.8,221.5h40.1l16.8,61.2l13.6-61.2h37.2l13.6,61.2l16.8-61.2H214
			L181.3,341.4z"/>
		<path d="M313.8,341.4h-38.5v-7.5c-6.4,6.8-14.7,10.2-24.9,10.2c-13,0-23.5-4.4-31.6-13.2s-12.1-20.5-12.1-34.9
			c0-14.4,4-26.1,12.1-34.9c8.1-8.8,18.6-13.2,31.6-13.2c10.1,0,18.4,3.4,24.9,10.2v-7.5h38.5V341.4z M271.2,307.5
			c2.8-3.2,4.2-7.1,4.2-11.6s-1.4-8.4-4.2-11.6c-2.8-3.2-6.4-4.8-10.8-4.8c-4.5,0-8.1,1.6-10.8,4.8c-2.7,3.2-4,7.1-4,11.6
			s1.3,8.4,4,11.6c2.7,3.2,6.3,4.8,10.8,4.8C264.8,312.4,268.4,310.8,271.2,307.5z"/>
		<path d="M326.4,341.4V212.5h38.5v128.8L326.4,341.4L326.4,341.4z"/>
		<path d="M377.4,341.4V212.5h38.5v128.8L377.4,341.4L377.4,341.4z"/>
		<path d="M513.1,261.3c10,9,15,20.5,15,34.6s-5,25.6-15,34.6c-10,9-22.2,13.5-36.7,13.5c-14.4,0-26.7-4.5-36.7-13.5
			c-10-9-15-20.5-15-34.6s5-25.6,15-34.6c10-9,22.2-13.5,36.7-13.5C490.9,247.8,503.1,252.3,513.1,261.3z M487.1,307.5
			c2.8-3.2,4.2-7.1,4.2-11.6s-1.4-8.4-4.2-11.6c-2.8-3.2-6.4-4.8-10.6-4.8s-7.8,1.6-10.6,4.8c-2.8,3.2-4.2,7.1-4.2,11.6
			s1.4,8.4,4.2,11.6c2.8,3.2,6.4,4.8,10.6,4.8S484.3,310.8,487.1,307.5z"/>
		<path d="M626.3,257.6c6,6.6,9,15.6,9,27v56.7h-38.5v-48.5c0-3.3-0.9-6-2.8-8c-1.8-2-4.3-3-7.2-3c-3.5,0-6.2,1.2-8.2,3.8
			c-2,2.5-3,5.8-3,9.8v46h-38.5v-90.9h38.5v9.8c7.3-8.4,16.2-12.5,26.7-12.5C612.2,247.8,620.3,251.1,626.3,257.6z"/>
		<path d="M684.4,209.8c4,4,6,8.8,6,14.4c0,5.8-2,10.7-6,14.6c-4,3.9-9,5.8-15.1,5.8s-11.1-1.9-15-5.8c-3.9-3.9-5.9-8.7-5.9-14.6
			c0-5.6,2-10.4,5.9-14.4c3.9-4,9-6,15-6S680.5,205.8,684.4,209.8z M650.2,341.4v-90.9h38.5v90.9H650.2z"/>
		<path d="M806.4,341.4h-38.5v-7.5c-6.4,6.8-14.7,10.2-24.9,10.2c-13,0-23.5-4.4-31.6-13.2s-12.1-20.5-12.1-34.9
			c0-14.4,4-26.1,12.1-34.9s18.6-13.2,31.6-13.2c10.1,0,18.4,3.4,24.9,10.2v-7.5h38.5V341.4z M763.7,307.5c2.8-3.2,4.2-7.1,4.2-11.6
			s-1.4-8.4-4.2-11.6s-6.4-4.8-10.8-4.8c-4.5,0-8.1,1.6-10.8,4.8s-4,7.1-4,11.6s1.3,8.4,4,11.6c2.7,3.2,6.3,4.8,10.8,4.8
			C757.3,312.4,760.9,310.8,763.7,307.5z"/>
	</g>
	<g>
		<path d="M235.9,409c8.1,8.8,12.1,20.5,12.1,34.9c0,14.4-4,26.1-12.1,34.9c-8.1,8.8-18.6,13.2-31.6,13.2
			c-10.1,0-18.4-3.4-24.9-10.2v7.5h-38.5V360.5h38.5V406c6.4-6.8,14.7-10.2,24.9-10.2C217.3,395.8,227.8,400.2,235.9,409z
			 M205.3,455.5c2.7-3.2,4-7.1,4-11.6s-1.3-8.4-4-11.6c-2.7-3.2-6.3-4.8-10.8-4.8c-4.4,0-8,1.6-10.8,4.8s-4.2,7.1-4.2,11.6
			s1.4,8.4,4.2,11.6s6.4,4.8,10.8,4.8C199,460.4,202.6,458.7,205.3,455.5z"/>
		<path d="M290.7,453c2.1,7,6.6,10.6,13.4,10.6c3,0,5.7-0.7,8-2c2.4-1.3,4-3.1,4.8-5.4l34.2,6.6c-3.6,9.7-9.5,16.9-17.6,21.8
			c-8.2,4.9-18,7.3-29.4,7.3c-14.2,0-26.2-4.5-36-13.5c-9.8-9-14.8-20.5-14.8-34.6s4.9-25.6,14.8-34.6c9.8-9,21.8-13.5,35.9-13.5
			c14.7,0,26.4,4.4,35.1,13.3c8.7,8.9,13.1,21.7,13.1,38.4v5.5L290.7,453L290.7,453z M290.9,433.7h24.7c-0.8-2.9-2.3-5.1-4.5-6.7
			s-4.5-2.4-7.2-2.4C297.6,424.6,293.2,427.6,290.9,433.7z"/>
	</g>
	<rect x="67.6" y="446.1" class="st0" width="43" height="43"/>
</g>
</svg>
